<?xml version="1.0" encoding="UTF-8" standalone="no" ?>
<!DOCTYPE svg PUBLIC "-//W3C//DTD SVG 1.1//EN" "http://www.w3.org/Graphics/SVG/1.1/DTD/svg11.dtd">
<svg xmlns="http://www.w3.org/2000/svg" xmlns:xlink="http://www.w3.org/1999/xlink" version="1.1" width="1280" height="1024" viewBox="0 0 1280 1024" xml:space="preserve">
<desc>Created with Fabric.js 5.3.0</desc>
<defs>
</defs>
<g transform="matrix(1 0 0 1 640 512)" id="background-logo"  >
<rect style="stroke: none; stroke-width: 0; stroke-dasharray: none; stroke-linecap: butt; stroke-dashoffset: 0; stroke-linejoin: miter; stroke-miterlimit: 4; fill: rgb(5,16,36); fill-rule: nonzero; opacity: 1;"  paint-order="stroke"  x="-640" y="-512" rx="0" ry="0" width="1280" height="1024" />
</g>
<g transform="matrix(2.847331374274424 0 0 2.847331374274424 638.7360829959515 410.0035006194979)" id="logo-logo"  >
<g style=""  paint-order="stroke"   >
		<g transform="matrix(0.0838747091998703 0 0 -0.08387470919987032 0 0)"  >
<linearGradient id="SVGID_24623_33371" gradientUnits="userSpaceOnUse" gradientTransform="matrix(2124.95 2646.56 2646.56 -2124.95 2736.9 2784.98)"  x1="0" y1="0" x2="1" y2="0">
<stop offset="0%" style="stop-color:rgb(81,133,230);stop-opacity: 1"/>
<stop offset="100%" style="stop-color:rgb(188,208,245);stop-opacity: 1"/>
</linearGradient>
<path style="stroke: none; stroke-width: 1; stroke-dasharray: none; stroke-linecap: butt; stroke-dashoffset: 0; stroke-linejoin: miter; stroke-miterlimit: 4; fill: url(#SVGID_24623_33371); fill-rule: nonzero; opacity: 1;"  paint-order="stroke"  transform=" translate(-3525.1849999999995, -3644.564999999999)" d="M 4408.42 4591.32 L 4532.59 4467.15 L 4295.71 4230.2699999999995 C 4107.17 4509 3788.14 4692.5599999999995 3427.07 4692.5599999999995 C 2849.2000000000003 4692.5599999999995 2379.07 4222.429999999999 2379.07 3644.5599999999995 C 2379.07 3584.4599999999996 2384.4700000000003 3525.6299999999997 2394.27 3468.2999999999993 L 2582.19 3656.2199999999993 C 2588.5 4116.879999999999 2964.94 4489.719999999999 3427.07 4489.719999999999 C 3732.4500000000003 4489.719999999999 4000.48 4326.929999999999 4148.99 4083.5699999999993 L 3649.0299999999997 3583.609999999999 L 3222.7299999999996 4009.939999999999 L 2616.9399999999996 3404.119999999999 L 2250.2 3037.3599999999988 C 2277.3999999999996 2971.569999999999 2310.99 2909.029999999999 2350.41 2850.739999999999 L 2558.45 3058.809999999999 C 2747.02 2780.109999999999 3065.99 2596.569999999999 3427.0699999999997 2596.569999999999 C 4004.93 2596.569999999999 4475.0599999999995 3066.699999999999 4475.0599999999995 3644.5599999999986 C 4475.0599999999995 3704.4999999999986 4469.679999999999 3763.1599999999985 4459.95 3820.319999999999 L 4271.91 3632.3099999999986 C 4265.29 3171.9099999999985 3888.99 2799.4099999999985 3427.0699999999997 2799.4099999999985 C 3121.7099999999996 2799.4099999999985 2853.7099999999996 2962.1699999999983 2705.1699999999996 3205.5099999999984 L 3222.7299999999996 3723.0599999999986 L 3649.0299999999997 3296.7299999999987 L 4237.219999999999 3884.9199999999987 L 4237.329999999999 3884.529999999999 L 4396.049999999999 4043.279999999999 L 4395.909999999999 4043.6499999999987 L 4675.999999999999 4323.729999999999 L 4800.169999999999 4199.559999999999 L 4800.169999999999 4591.319999999999 L 4408.419999999999 4591.319999999999" stroke-linecap="round" />
</g>
</g>
</g>
<g transform="matrix(1.9211538461538462 0 0 1.9211538461538462 638.0598368421054 828.844108754004)" id="text-logo"  >
<g style=""  paint-order="stroke"   >
		<g transform="matrix(1 0 0 1 0 0)" id="text-logo-path-0"  >
<path style="stroke: rgb(255,255,255); stroke-width: 6; stroke-dasharray: none; stroke-linecap: butt; stroke-dashoffset: 0; stroke-linejoin: miter; stroke-miterlimit: 4; fill: rgb(112,155,235); fill-rule: nonzero; opacity: 1;"  paint-order="stroke"  transform=" translate(-182.69, 30.8)" d="M 15.14 -14.96 L 15.14 -21.12 L 1.94 -21.12 L 1.94 -14.96 C 1.94 -4.84 6.86 0.44 17.25 0.44 C 27.28 0.44 32.74 -4.58 32.74 -14.96 L 32.74 -19.01 C 32.65 -26.4 25.87 -33.18 21.82 -36.26 C 16.72 -40.3 15.22 -40.83 15.14 -43.47 L 15.14 -46.64 C 15.14 -48.22 15.75 -48.84 17.34 -48.84 C 18.92 -48.84 19.54 -48.22 19.54 -46.64 L 19.54 -42.24 L 32.74 -42.24 L 32.74 -46.64 C 32.74 -56.76 27.81 -62.04 17.42 -62.04 C 7.39 -62.04 1.94 -57.02 1.94 -46.64 L 1.94 -43.3 C 2.11 -33.97 8.01 -30.36 13.73 -25.87 C 18.3 -22.26 19.45 -21.74 19.54 -18.92 L 19.54 -14.96 C 19.54 -13.38 18.92 -12.76 17.34 -12.76 C 15.75 -12.76 15.14 -13.38 15.14 -14.96 Z M 72.25 -61.6 L 44.97 -61.6 L 44.97 -50.16 L 52.01 -50.16 L 52.01 0 L 65.21 0 L 65.21 -50.16 L 72.25 -50.16 Z M 92.4 -61.6 L 83.6 0 L 96.8 0 L 97.33 -5.28 L 104.19 -5.28 L 104.72 0 L 117.92 0 L 109.12 -61.6 Z M 98.56 -16.72 L 100.76 -38.46 L 103.05 -16.72 Z M 146.87 -14.96 C 146.87 -13.38 146.26 -12.76 144.67 -12.76 C 143.09 -12.76 142.47 -13.38 142.47 -14.96 L 142.47 -46.64 C 142.47 -48.22 143.09 -48.84 144.67 -48.84 C 146.26 -48.84 146.87 -48.22 146.87 -46.64 L 146.87 -38.72 L 160.07 -38.72 L 160.07 -46.64 C 160.07 -56.76 155.14 -62.04 144.76 -62.04 C 134.73 -62.04 129.27 -57.02 129.27 -46.64 L 129.27 -14.96 C 129.27 -4.58 134.73 0.44 144.76 0.44 C 155.14 0.44 160.07 -4.84 160.07 -14.96 L 160.07 -22.88 L 146.87 -22.88 Z M 173.18 -61.6 L 173.18 0 L 186.38 0 L 186.38 -16.72 L 187 -18.13 L 191.66 0 L 205.74 0 L 193.69 -33.62 L 205.74 -61.6 L 191.66 -61.6 L 186.38 -45.76 L 186.38 -61.6 Z M 231.18 -14.96 L 231.18 -21.12 L 217.98 -21.12 L 217.98 -14.96 C 217.98 -4.84 222.9 0.44 233.29 0.44 C 243.32 0.44 248.78 -4.58 248.78 -14.96 L 248.78 -19.01 C 248.69 -26.4 241.91 -33.18 237.86 -36.26 C 232.76 -40.3 231.26 -40.83 231.18 -43.47 L 231.18 -46.64 C 231.18 -48.22 231.79 -48.84 233.38 -48.84 C 234.96 -48.84 235.58 -48.22 235.58 -46.64 L 235.58 -42.24 L 248.78 -42.24 L 248.78 -46.64 C 248.78 -56.76 243.85 -62.04 233.46 -62.04 C 223.43 -62.04 217.98 -57.02 217.98 -46.64 L 217.98 -43.3 C 218.15 -33.97 224.05 -30.36 229.77 -25.87 C 234.34 -22.26 235.49 -21.74 235.58 -18.92 L 235.58 -14.96 C 235.58 -13.38 234.96 -12.76 233.38 -12.76 C 231.79 -12.76 231.18 -13.38 231.18 -14.96 Z M 306.33 -14.96 C 306.33 -13.38 305.71 -12.76 304.13 -12.76 C 302.54 -12.76 301.93 -13.38 301.93 -14.96 L 301.93 -61.6 L 288.73 -61.6 L 288.73 -14.96 C 288.73 -4.58 294.18 0.44 304.22 0.44 C 314.6 0.44 319.53 -4.84 319.53 -14.96 L 319.53 -61.6 L 306.33 -61.6 Z M 332.64 0 L 345.84 0 L 345.84 -21.12 L 351.65 -21.12 C 359.92 -21.12 363.44 -24.99 363.44 -33 L 363.44 -49.72 C 363.44 -57.73 359.92 -61.6 351.65 -61.6 L 332.64 -61.6 Z M 348.13 -32.56 L 345.84 -32.56 L 345.84 -50.16 L 348.13 -50.16 C 349.62 -50.16 350.24 -49.46 350.24 -47.96 L 350.24 -34.76 C 350.24 -33.26 349.62 -32.56 348.13 -32.56 Z" stroke-linecap="round" />
</g>
</g>
</g>
</svg>